<?xml version="1.0" encoding="utf-8"?>
<!-- Generator: Adobe Illustrator 23.1.1, SVG Export Plug-In . SVG Version: 6.00 Build 0)  -->
<svg version="1.1" id="Layer_1" xmlns="http://www.w3.org/2000/svg" xmlns:xlink="http://www.w3.org/1999/xlink" x="0px" y="0px"
	 viewBox="0 0 300 300" style="enable-background:new 0 0 300 300;" xml:space="preserve">
<style type="text/css">
	.st0{fill-rule:evenodd;clip-rule:evenodd;fill:#F2F2F3;}
</style>
<g>
	<path class="st0" d="M101.78,142.57v-3.15c0-0.48,0.36-0.8,0.8-0.8l14.13,0c0.45,0,0.81,0.33,0.81,0.79v2.7
		c0,0.45-0.39,1.04-1.06,1.98l-7.32,10.42c2.72-0.06,5.59,0.34,8.06,1.73c0.56,0.31,0.71,0.77,0.75,1.23v3.36
		c0,0.46-0.51,1-1.04,0.72c-4.35-2.27-10.12-2.52-14.93,0.03c-0.49,0.26-1-0.27-1-0.73v-3.19c0-0.51,0.01-1.38,0.53-2.16l8.48-12.14
		l-7.38,0C102.14,143.36,101.78,143.04,101.78,142.57L101.78,142.57z"/>
</g>
<g>
	<path class="st0" d="M50.24,162.21h-4.3c-0.41-0.03-0.74-0.33-0.77-0.72l0-22.01c0-0.44,0.37-0.79,0.83-0.79l4,0
		c0.42,0.02,0.75,0.34,0.78,0.74v2.87h0.08c1.04-2.78,3.01-4.08,5.66-4.08c2.69,0,4.37,1.3,5.58,4.08c1.04-2.78,3.41-4.08,5.94-4.08
		c1.81,0,3.77,0.74,4.98,2.41c1.36,1.85,1.08,4.54,1.08,6.9l0,13.89c0,0.44-0.37,0.79-0.83,0.79h-4.29
		c-0.43-0.03-0.77-0.37-0.77-0.79l0-11.67c0-0.92,0.08-3.24-0.12-4.12c-0.32-1.48-1.28-1.9-2.53-1.9c-1.04,0-2.13,0.7-2.57,1.81
		c-0.44,1.11-0.4,2.96-0.4,4.22v11.67c0,0.44-0.37,0.79-0.83,0.79h-4.29c-0.43-0.03-0.77-0.37-0.77-0.79l0-11.67
		c0-2.45,0.4-6.07-2.65-6.07c-3.09,0-2.97,3.52-2.97,6.07l0,11.67C51.07,161.86,50.69,162.21,50.24,162.21L50.24,162.21z"/>
</g>
<g>
	<g>
		<path class="st0" d="M129.68,138.22c-6.22,0-9.67,5.33-9.67,12.18c0,6.81,3.41,12.27,9.67,12.27c6.02,0,9.83-5.33,9.83-12.04
			C139.51,143.69,136.06,138.22,129.68,138.22z M129.68,158.14c-3.37,0-3.33-5.74-3.33-8.43c0-2.69,0.2-6.99,3.37-6.99
			c1.36,0,2.33,0.6,2.81,2.13c0.56,1.76,0.64,3.98,0.64,5.84C133.17,153.5,133.01,158.14,129.68,158.14z"/>
	</g>
</g>
<g>
	<path class="st0" d="M147.79,162.21h-4.28c-0.43-0.03-0.77-0.37-0.77-0.79l-0.01-22.02c0.04-0.4,0.39-0.72,0.83-0.72l3.99,0
		c0.38,0.02,0.69,0.27,0.76,0.62v3.37h0.08c1.2-3.01,2.89-4.45,5.86-4.45c1.93,0,3.81,0.69,5.02,2.59c1.12,1.76,1.12,4.72,1.12,6.85
		v13.85c-0.05,0.39-0.4,0.69-0.82,0.69h-4.31c-0.4-0.03-0.72-0.32-0.77-0.69v-11.95c0-2.41,0.28-5.93-2.69-5.93
		c-1.04,0-2.01,0.7-2.49,1.76c-0.6,1.34-0.68,2.69-0.68,4.17v11.85C148.62,161.86,148.25,162.21,147.79,162.21L147.79,162.21z"/>
</g>
<g>
	<g>
		<path class="st0" d="M98.17,158.18c-0.79-1.08-1.62-1.96-1.62-3.97v-6.68c0-2.83,0.2-5.43-1.89-7.38
			c-1.65-1.58-4.38-2.14-6.47-2.14c-4.09,0-8.65,1.52-9.61,6.57c-0.1,0.54,0.29,0.82,0.64,0.9l4.17,0.45
			c0.39-0.02,0.67-0.4,0.75-0.79c0.36-1.74,1.82-2.57,3.46-2.57c0.88,0,1.89,0.33,2.41,1.11c0.6,0.88,0.52,2.09,0.52,3.11v0.56
			c-2.49,0.28-5.75,0.46-8.08,1.49c-2.69,1.16-4.58,3.53-4.58,7.01c0,4.46,2.82,6.68,6.43,6.68c3.06,0,4.73-0.72,7.09-3.12
			c0.78,1.13,1.04,1.67,2.46,2.86c0.32,0.17,0.73,0.16,1.02-0.1l0.01,0.01c0.86-0.76,2.42-2.11,3.3-2.85
			C98.5,159.03,98.44,158.57,98.17,158.18z M89.71,156.25c-0.68,1.21-1.77,1.95-2.98,1.95c-1.65,0-2.61-1.25-2.61-3.11
			c0-3.65,3.28-4.32,6.39-4.32v0.93C90.51,153.37,90.55,154.76,89.71,156.25z"/>
	</g>
</g>
<g>
	<g>
		<path class="st0" d="M41.82,158.18c-0.79-1.08-1.62-1.96-1.62-3.97v-6.68c0-2.83,0.2-5.43-1.89-7.38
			c-1.65-1.58-4.38-2.14-6.47-2.14c-4.09,0-8.66,1.52-9.61,6.57c-0.1,0.54,0.29,0.82,0.64,0.9l4.17,0.45
			c0.39-0.02,0.67-0.4,0.75-0.79c0.36-1.74,1.82-2.57,3.45-2.57c0.88,0,1.89,0.33,2.41,1.11c0.6,0.88,0.52,2.09,0.52,3.11v0.56
			c-2.49,0.28-5.75,0.46-8.08,1.49c-2.69,1.16-4.58,3.53-4.58,7.01c0,4.46,2.82,6.68,6.43,6.68c3.06,0,4.73-0.72,7.09-3.12
			c0.78,1.13,1.04,1.67,2.46,2.86c0.32,0.17,0.73,0.16,1.02-0.1l0.01,0.01c0.86-0.76,2.42-2.11,3.3-2.85
			C42.15,159.03,42.09,158.57,41.82,158.18z M33.36,156.25c-0.68,1.21-1.77,1.95-2.98,1.95c-1.65,0-2.61-1.25-2.61-3.11
			c0-3.65,3.29-4.32,6.39-4.32v0.93C34.16,153.37,34.2,154.76,33.36,156.25z"/>
	</g>
</g>
<g>
	<path class="st0" d="M247.87,158.45c0.79-0.59,1.18-1.43,1.18-2.55c0-0.74-0.24-1.34-0.72-1.81c-0.48-0.46-1.35-0.93-2.62-1.39
		l-3.94-1.48c-3.43-1.27-5.15-3.43-5.15-6.48c0-2.01,0.78-3.63,2.34-4.86c1.56-1.23,3.61-1.85,6.15-1.85c2.01,0,3.98,0.36,5.89,1.07
		c0.37,0.12,0.63,0.29,0.79,0.49c0.15,0.2,0.23,0.5,0.23,0.9v1.25c0,0.56-0.2,0.83-0.6,0.83c-0.22,0-0.57-0.08-1.07-0.23
		c-1.64-0.49-3.31-0.74-5.01-0.74c-2.97,0-4.46,1-4.46,3.01c0,0.8,0.25,1.44,0.74,1.9c0.49,0.46,1.47,0.97,2.92,1.53l3.62,1.39
		c1.83,0.71,3.14,1.55,3.95,2.52c0.8,0.97,1.21,2.23,1.21,3.77c0,2.19-0.82,3.94-2.46,5.23c-1.64,1.3-3.82,1.95-6.54,1.95
		c-2.6,0-4.93-0.43-7.01-1.3c-0.37-0.15-0.63-0.33-0.77-0.51c-0.14-0.18-0.21-0.48-0.21-0.88v-1.3c0-0.56,0.19-0.83,0.56-0.83
		c0.22,0,0.6,0.09,1.16,0.28c2.04,0.65,4.16,0.97,6.36,0.97C245.93,159.33,247.08,159.03,247.87,158.45L247.87,158.45z"/>
</g>
<g>
	<path class="st0" d="M227.32,139.65c0-0.62,0.31-0.93,0.93-0.93h2.74c0.62,0,0.93,0.31,0.93,0.93v21.62c0,0.62-0.31,0.93-0.93,0.93
		H229c-0.31,0-0.55-0.06-0.72-0.19c-0.17-0.12-0.29-0.36-0.35-0.7l-0.33-1.62c-2.88,2.13-5.83,3.19-8.86,3.19
		c-2.2,0-3.88-0.62-5.06-1.85c-1.18-1.23-1.76-2.98-1.76-5.23v-16.16c0-0.62,0.31-0.93,0.93-0.93h2.74c0.62,0,0.93,0.31,0.93,0.93
		v14.68c0,1.67,0.33,2.89,0.97,3.68c0.65,0.79,1.69,1.18,3.11,1.18c2.23,0,4.47-0.74,6.73-2.22V139.65L227.32,139.65z"/>
</g>
<g>
	<path class="st0" d="M202.44,162.2c-0.62,0-0.93-0.31-0.93-0.93v-15c0-1.54-0.29-2.69-0.88-3.43c-0.59-0.74-1.52-1.11-2.78-1.11
		c-2.26,0-4.53,0.69-6.82,2.08c0.03,0.22,0.05,0.45,0.05,0.7v16.76c0,0.62-0.31,0.93-0.93,0.93h-2.74c-0.62,0-0.93-0.31-0.93-0.93
		v-15c0-1.54-0.29-2.69-0.88-3.43c-0.59-0.74-1.52-1.11-2.78-1.11c-2.35,0-4.61,0.68-6.78,2.04v17.5c0,0.62-0.31,0.93-0.93,0.93
		h-2.74c-0.62,0-0.93-0.31-0.93-0.93v-21.62c0-0.62,0.31-0.93,0.93-0.93h2.04c0.31,0,0.55,0.06,0.72,0.18
		c0.17,0.12,0.29,0.36,0.35,0.69l0.28,1.48c2.97-2.04,5.86-3.06,8.68-3.06c2.88,0,4.83,1.1,5.85,3.29c3.06-2.19,6.13-3.29,9.19-3.29
		c2.14,0,3.77,0.6,4.92,1.81c1.14,1.2,1.72,2.92,1.72,5.14v16.3c0,0.62-0.31,0.93-0.93,0.93H202.44L202.44,162.2z"/>
</g>
<g>
	<path class="st0" d="M273.32,143.93c-1.15,1.31-1.72,3.4-1.72,6.27v0.6c0,2.81,0.58,4.87,1.74,6.18c1.16,1.31,2.99,1.97,5.5,1.97
		c1.3,0,2.69-0.22,4.18-0.65c0.34-0.09,0.57-0.14,0.7-0.14c0.4,0,0.6,0.31,0.6,0.93v1.25c0,0.4-0.06,0.7-0.19,0.88
		c-0.12,0.19-0.37,0.36-0.74,0.51c-1.52,0.65-3.28,0.97-5.29,0.97c-3.65,0-6.44-1.04-8.38-3.12c-1.93-2.08-2.9-5.1-2.9-9.05
		c0-3.92,1-6.95,2.99-9.1c2-2.15,4.82-3.22,8.47-3.22c1.67,0,3.31,0.29,4.92,0.88c0.34,0.12,0.58,0.28,0.72,0.46
		c0.14,0.19,0.21,0.49,0.21,0.93v1.25c0,0.62-0.2,0.93-0.6,0.93c-0.15,0-0.4-0.05-0.74-0.14c-1.27-0.37-2.55-0.56-3.85-0.56
		C276.33,141.96,274.46,142.62,273.32,143.93L273.32,143.93z"/>
</g>
<g>
	<path class="st0" d="M261.04,138.72c0.62,0,0.93,0.31,0.93,0.93v21.62c0,0.62-0.31,0.93-0.93,0.93h-2.74
		c-0.62,0-0.93-0.31-0.93-0.93v-21.62c0-0.62,0.31-0.93,0.93-0.93H261.04L261.04,138.72z"/>
</g>
<g>
	<path class="st0" d="M261.8,129.76c0.51,0.51,0.76,1.18,0.76,2.01c0,0.83-0.26,1.5-0.76,2.01c-0.51,0.51-1.22,0.76-2.11,0.76
		c-0.9,0-1.6-0.25-2.11-0.76c-0.51-0.51-0.77-1.18-0.77-2.01c0-0.83,0.26-1.51,0.77-2.01c0.51-0.51,1.21-0.76,2.11-0.76
		C260.59,129,261.29,129.25,261.8,129.76L261.8,129.76z"/>
</g>
<path class="st0" d="M107.62,170.66c-8.07,5.94-19.77,9.1-29.84,9.1c-14.12,0-26.83-5.21-36.45-13.87
	c-0.75-0.68-0.08-1.61,0.83-1.08c10.38,6.03,23.22,9.66,36.47,9.66c8.94,0,18.78-1.85,27.82-5.68
	C107.81,168.2,108.95,169.68,107.62,170.66L107.62,170.66z"/>
<path class="st0" d="M110.97,166.84c-1.03-1.32-6.82-0.62-9.42-0.31c-0.79,0.09-0.91-0.59-0.2-1.09c4.62-3.24,12.19-2.3,13.07-1.22
	c0.89,1.09-0.23,8.66-4.56,12.28c-0.67,0.56-1.3,0.26-1-0.47C109.83,173.59,112.01,168.16,110.97,166.84L110.97,166.84z"/>
</svg>
