<?xml version="1.0" encoding="utf-8"?>
<!-- Generator: Adobe Illustrator 23.1.1, SVG Export Plug-In . SVG Version: 6.00 Build 0)  -->
<svg version="1.1" id="Layer_1" xmlns="http://www.w3.org/2000/svg" xmlns:xlink="http://www.w3.org/1999/xlink" x="0px" y="0px"
	 viewBox="0 0 300 300" style="enable-background:new 0 0 300 300;" xml:space="preserve">
<style type="text/css">
	.st0{fill:#F2F2F3;}
</style>
<g>
	<g>
		<path class="st0" d="M50.88,125.4c2.22-2.77,3.72-6.49,3.32-10.29c-3.24,0.16-7.2,2.14-9.49,4.91c-2.06,2.38-3.88,6.25-3.4,9.89
			C44.95,130.23,48.59,128.09,50.88,125.4"/>
		<path class="st0" d="M54.16,130.62c-5.29-0.32-9.78,3-12.31,3c-2.53,0-6.39-2.84-10.57-2.76c-5.44,0.08-10.49,3.16-13.25,8.05
			c-5.68,9.79-1.5,24.32,4.03,32.29c2.68,3.95,5.92,8.29,10.17,8.13c4.03-0.16,5.6-2.61,10.49-2.61c4.89,0,6.31,2.61,10.57,2.53
			c4.42-0.08,7.18-3.95,9.86-7.9c3.08-4.5,4.34-8.84,4.42-9.08c-0.08-0.08-8.52-3.32-8.6-13.03c-0.08-8.13,6.63-12,6.94-12.24
			C62.13,131.41,56.21,130.78,54.16,130.62"/>
	</g>
	<g>
		<g>
			<polygon class="st0" points="129.49,178.84 129.49,135.26 129.2,135.26 111.35,178.84 104.54,178.84 86.65,135.26 86.36,135.26 
				86.36,178.84 77.99,178.84 77.99,119.62 88.62,119.62 107.78,166.81 108.11,166.81 127.23,119.62 137.9,119.62 137.9,178.84 			
				"/>
		</g>
		<g>
			<path class="st0" d="M184.19,178.84h-8.49v-7.3h-0.21c-2.38,5.17-6.77,8.09-13.38,8.09c-9.4,0-15.14-6.12-15.14-16v-27.95h8.86
				v26.23c0,6.56,3.12,10.09,9.23,10.09c6.4,0,10.26-4.43,10.26-11.16v-25.16h8.86V178.84z"/>
		</g>
		<path class="st0" d="M208.48,134.89c10.05,0,16.58,5.58,16.87,13.54h-8.33c-0.49-4.18-3.57-6.81-8.53-6.81c-4.8,0-8,2.34-8,5.79
			c0,2.71,1.97,4.55,6.65,5.62l7.02,1.6c8.82,2.05,12.19,5.5,12.19,11.73c0,7.88-7.35,13.3-17.52,13.3
			c-10.79,0-17.28-5.29-18.1-13.5h8.78c0.82,4.51,3.9,6.73,9.32,6.73c5.33,0,8.62-2.22,8.62-5.75c0-2.79-1.6-4.43-6.32-5.5
			l-7.02-1.64c-8.21-1.89-12.27-5.83-12.27-12.1C191.82,140.18,198.55,134.89,208.48,134.89"/>
		<g>
			<path class="st0" d="M232.48,124.26c0-2.83,2.3-5.09,5.13-5.09c2.83,0,5.09,2.26,5.09,5.09c0,2.79-2.26,5.09-5.09,5.09
				C234.78,129.35,232.48,127.05,232.48,124.26 M233.18,135.67h8.86v43.17h-8.86V135.67z"/>
		</g>
		<g>
			<path class="st0" d="M279.46,150.52c-0.9-4.6-4.35-8.25-10.14-8.25c-6.85,0-11.37,5.7-11.37,14.98c0,9.48,4.56,14.98,11.45,14.98
				c5.46,0,9.03-3,10.05-8H288c-0.94,9.19-8.29,15.43-18.67,15.43c-12.35,0-20.39-8.45-20.39-22.4c0-13.71,8.04-22.37,20.31-22.37
				c11.12,0,17.89,7.14,18.67,15.64H279.46z"/>
		</g>
	</g>
</g>
</svg>
