<?xml version="1.0" encoding="utf-8"?>
<!-- Generator: Adobe Illustrator 23.1.1, SVG Export Plug-In . SVG Version: 6.00 Build 0)  -->
<svg version="1.1" id="Layer_1" xmlns="http://www.w3.org/2000/svg" xmlns:xlink="http://www.w3.org/1999/xlink" x="0px" y="0px"
	 viewBox="0 0 300 300" style="enable-background:new 0 0 300 300;" xml:space="preserve">
<style type="text/css">
	.st0{fill:#F2F2F3;}
</style>
<g>
	<path class="st0" d="M25.66,157.02c-5.61,0-10.16-4.57-10.16-10.21c0-5.64,4.55-10.21,10.16-10.21c4.12,0,7.65,2.46,9.25,6h6.86
		c-1.86-7.2-8.36-12.53-16.11-12.53c-9.2,0-16.66,7.49-16.66,16.74s7.46,16.73,16.66,16.73c7.68,0,14.12-5.22,16.05-12.32h-6.9
		C33.17,154.65,29.7,157.02,25.66,157.02z"/>
	<path class="st0" d="M108.99,136.87c-7.31,0-13.23,5.95-13.23,13.29c0,7.34,5.92,13.29,13.23,13.29c7.31,0,13.23-5.95,13.23-13.29
		C122.23,142.82,116.3,136.87,108.99,136.87z M108.99,157.34c-3.95,0-7.15-3.21-7.15-7.18c0-3.96,3.2-7.18,7.15-7.18
		c3.95,0,7.15,3.21,7.15,7.18C116.14,154.13,112.94,157.34,108.99,157.34z"/>
	<path class="st0" d="M70.12,160.81v2.53h6.44l-0.24-20.53c0,0,0.34-5.95-10.43-5.95c-10.77,0-11.14,8.52-10.83,8.83h6.61
		c0,0,0.07-4.72,5.79-3.42c0,0,2.66,0,2.52,2.6c-0.14,2.6-4.22,2.6-6.68,2.6c-2.45,0-11.92,2.4-7.63,12.94c0,0,2.18,3.76,8.72,2.74
		c0,0,3.07-0.14,5.52-2.26C72.37,158.76,70.12,160.81,70.12,160.81z M64.46,158.9c-4.77,0.34-4.43-6.26-0.68-6.74
		c3.75-0.48,6.06-1.81,6.06-1.81s0.07,0.34,0.07,2.33C69.92,154.65,69.23,158.55,64.46,158.9z"/>
	<g>
		<path class="st0" d="M95.32,143.99c-0.7-0.54-8.17-1.28-8.17,6.35v12.73h-6.43V138.1h6.43v2.71c0,0,2.07-3.59,8.17-3.8V143.99z"/>
	</g>
	<rect x="44.57" y="130.22" class="st0" width="6.4" height="32.85"/>
	<rect x="106.88" y="115.09" class="st0" width="6.23" height="16.15"/>
	<rect x="126.2" y="144.05" class="st0" width="17.07" height="6.23"/>
	
		<rect x="118.5" y="125.28" transform="matrix(0.7071 -0.7071 0.7071 0.7071 -52.7691 129.1071)" class="st0" width="21.93" height="5.95"/>
</g>
<g>
	<path class="st0" d="M149.53,137.86h5.3v3.98h0.09c0.5-1.2,1.29-2.27,2.4-3.21c1.1-0.94,2.58-1.41,4.44-1.41
		c3.5,0,5.83,1.57,6.98,4.72c0.81-1.63,1.81-2.82,3.02-3.58c1.21-0.76,2.65-1.14,4.33-1.14c1.49,0,2.74,0.28,3.77,0.85
		c1.02,0.56,1.85,1.34,2.49,2.33c0.64,0.99,1.09,2.15,1.37,3.47c0.28,1.33,0.42,2.75,0.42,4.27v15.17h-5.58v-14.43
		c0-0.78-0.06-1.53-0.19-2.25c-0.12-0.73-0.34-1.36-0.65-1.91c-0.31-0.55-0.73-0.98-1.26-1.3c-0.53-0.32-1.21-0.48-2.05-0.48
		c-0.87,0-1.61,0.19-2.21,0.56c-0.6,0.37-1.1,0.87-1.49,1.48c-0.39,0.62-0.67,1.33-0.84,2.12c-0.17,0.79-0.26,1.6-0.26,2.41v13.79
		h-5.58v-15.17c0-1.59-0.29-2.86-0.88-3.79c-0.59-0.94-1.57-1.41-2.93-1.41c-0.93,0-1.71,0.18-2.35,0.53
		c-0.64,0.35-1.16,0.83-1.58,1.43c-0.42,0.6-0.72,1.29-0.91,2.07c-0.19,0.78-0.28,1.59-0.28,2.44v13.9h-5.58V137.86z"/>
	<path class="st0" d="M210.62,163.32h-5.3v-4.08h-0.09c-0.53,1.27-1.33,2.38-2.42,3.32c-1.09,0.94-2.56,1.41-4.42,1.41
		c-1.49,0-2.75-0.27-3.79-0.82c-1.04-0.55-1.88-1.29-2.54-2.23c-0.65-0.94-1.12-2.01-1.4-3.21c-0.28-1.2-0.42-2.46-0.42-3.77v-16.07
		h5.58v12.89c0,0.71,0.03,1.49,0.09,2.36c0.06,0.87,0.23,1.68,0.49,2.44c0.26,0.76,0.67,1.4,1.21,1.91c0.54,0.51,1.31,0.77,2.3,0.77
		c0.93,0,1.71-0.18,2.35-0.53c0.64-0.35,1.16-0.83,1.58-1.43c0.42-0.6,0.72-1.29,0.91-2.07c0.19-0.78,0.28-1.59,0.28-2.44v-13.9
		h5.58V163.32z M200.52,124.86h5.79l-5.27,8.01h-4.37L200.52,124.86z"/>
	<path class="st0" d="M229.9,144.91c-1.09-1.73-2.54-2.6-4.37-2.6c-0.75,0-1.47,0.21-2.19,0.64c-0.71,0.42-1.07,1.11-1.07,2.07
		c0,0.78,0.29,1.35,0.88,1.7c0.59,0.35,1.33,0.65,2.23,0.9c0.9,0.25,1.87,0.5,2.91,0.77c1.04,0.27,2.01,0.67,2.91,1.22
		c0.9,0.55,1.64,1.3,2.23,2.26c0.59,0.95,0.88,2.26,0.88,3.93c0,1.52-0.29,2.8-0.86,3.85c-0.57,1.04-1.32,1.88-2.23,2.52
		c-0.92,0.64-1.95,1.1-3.09,1.38c-1.15,0.28-2.3,0.42-3.44,0.42c-1.74,0-3.33-0.28-4.79-0.85c-1.46-0.56-2.76-1.59-3.91-3.08
		l3.72-3.98c0.71,0.92,1.48,1.67,2.3,2.25c0.82,0.58,1.82,0.88,3,0.88c0.4,0,0.82-0.05,1.26-0.16c0.43-0.11,0.84-0.28,1.21-0.53
		c0.37-0.25,0.68-0.56,0.91-0.93c0.23-0.37,0.35-0.8,0.35-1.3c0-0.88-0.3-1.54-0.88-1.96c-0.59-0.42-1.33-0.77-2.23-1.03
		c-0.9-0.27-1.87-0.51-2.91-0.74c-1.04-0.23-2.01-0.6-2.91-1.11c-0.9-0.51-1.64-1.23-2.23-2.15c-0.59-0.92-0.88-2.19-0.88-3.82
		c0-1.41,0.26-2.64,0.77-3.69c0.51-1.04,1.19-1.9,2.02-2.57c0.84-0.67,1.8-1.17,2.88-1.48c1.09-0.32,2.19-0.48,3.3-0.48
		c1.49,0,2.96,0.29,4.42,0.88c1.46,0.58,2.64,1.58,3.54,3L229.9,144.91z"/>
	<path class="st0" d="M238.48,130.77c0-1.03,0.36-1.92,1.07-2.68c0.72-0.76,1.62-1.14,2.72-1.14c1.1,0,2.02,0.36,2.77,1.09
		c0.75,0.73,1.12,1.64,1.12,2.74c0,1.1-0.37,2.01-1.12,2.74c-0.75,0.73-1.67,1.09-2.77,1.09c-1.1,0-2.01-0.38-2.72-1.14
		C238.83,132.69,238.48,131.8,238.48,130.77z M239.27,137.86h5.58v25.46h-5.58V137.86z"/>
	<path class="st0" d="M264.96,145.5c-0.65-0.78-1.33-1.4-2.05-1.86c-0.71-0.46-1.44-0.69-2.19-0.69c-1.02,0-1.94,0.21-2.75,0.64
		c-0.81,0.42-1.5,0.99-2.07,1.7c-0.57,0.71-1.01,1.52-1.3,2.44c-0.29,0.92-0.44,1.88-0.44,2.86c0,0.99,0.15,1.94,0.44,2.86
		c0.29,0.92,0.73,1.73,1.3,2.44c0.57,0.71,1.26,1.27,2.07,1.7c0.81,0.42,1.72,0.64,2.75,0.64c0.87,0,1.67-0.2,2.42-0.61
		c0.74-0.41,1.38-1,1.91-1.78l3.72,4.56c-0.56,0.64-1.2,1.19-1.93,1.64c-0.73,0.46-1.47,0.83-2.21,1.11
		c-0.75,0.28-1.46,0.49-2.14,0.61c-0.68,0.12-1.27,0.19-1.77,0.19c-1.68,0-3.26-0.32-4.75-0.95c-1.49-0.64-2.78-1.54-3.86-2.71
		c-1.09-1.17-1.95-2.57-2.58-4.22c-0.64-1.64-0.95-3.47-0.95-5.49c0-2.01,0.32-3.85,0.95-5.49c0.64-1.64,1.5-3.05,2.58-4.22
		c1.09-1.17,2.37-2.07,3.86-2.7c1.49-0.64,3.07-0.96,4.75-0.96c1.43,0,2.86,0.31,4.3,0.93c1.44,0.62,2.71,1.6,3.79,2.94
		L264.96,145.5z"/>
	<path class="st0" d="M286.09,159.82h-0.14c-0.81,1.45-1.83,2.5-3.07,3.16c-1.24,0.65-2.61,0.98-4.09,0.98c-1.02,0-2.02-0.16-3-0.48
		c-0.98-0.32-1.85-0.8-2.61-1.43c-0.76-0.64-1.37-1.43-1.84-2.39c-0.47-0.95-0.7-2.07-0.7-3.34c0-1.38,0.22-2.55,0.65-3.53
		c0.43-0.97,1.01-1.79,1.74-2.44c0.73-0.65,1.57-1.18,2.54-1.57c0.96-0.39,1.96-0.68,3-0.88c1.04-0.19,2.09-0.32,3.14-0.37
		c1.05-0.05,2.05-0.08,2.98-0.08h1.4v-0.69c0-1.59-0.48-2.79-1.44-3.58c-0.96-0.79-2.19-1.19-3.67-1.19c-1.18,0-2.28,0.24-3.3,0.72
		c-1.02,0.48-1.91,1.12-2.65,1.94l-2.93-3.34c1.24-1.45,2.69-2.49,4.35-3.13c1.66-0.64,3.37-0.96,5.14-0.96c1.58,0,2.91,0.2,4,0.61
		c1.09,0.41,1.99,0.93,2.7,1.56c0.71,0.64,1.26,1.37,1.65,2.2c0.39,0.83,0.67,1.67,0.84,2.52c0.17,0.85,0.27,1.67,0.3,2.47
		c0.03,0.79,0.05,1.49,0.05,2.09v14.64h-5.03V159.82z M285.76,151.92h-1.16c-0.78,0-1.64,0.04-2.61,0.11
		c-0.96,0.07-1.87,0.24-2.72,0.5c-0.85,0.27-1.57,0.66-2.16,1.17c-0.59,0.51-0.88,1.23-0.88,2.15c0,0.6,0.12,1.11,0.35,1.51
		c0.23,0.41,0.53,0.75,0.91,1.03c0.37,0.28,0.79,0.49,1.26,0.61c0.47,0.12,0.93,0.19,1.4,0.19c1.92,0,3.34-0.52,4.26-1.57
		c0.92-1.04,1.37-2.47,1.37-4.27V151.92z"/>
</g>
</svg>
