<?xml version="1.0" encoding="utf-8"?>
<!-- Generator: Adobe Illustrator 23.0.1, SVG Export Plug-In . SVG Version: 6.00 Build 0)  -->
<svg version="1.1" id="Layer_1" xmlns="http://www.w3.org/2000/svg" xmlns:xlink="http://www.w3.org/1999/xlink" x="0px" y="0px"
	 viewBox="0 0 270.2 60" style="enable-background:new 0 0 270.2 60;" xml:space="preserve">
<style type="text/css">
	.st0{fill:#F2F2F3;}
	.st1{fill-rule:evenodd;clip-rule:evenodd;fill:#F2F2F3;}
</style>
<path class="st0" d="M65,38.3c0,10.6,6.5,16.9,16.2,16.9c4.8,0,8.9-1.4,11.2-4.9v4.9h8.8V4.8H92v21.4c-2.1-3.5-5.9-5.1-10.8-5.1
	C71.8,21.1,65,27.5,65,38.3z M92.3,38.3c0,6-4.1,9.8-9,9.8c-5.1,0-9-3.8-9-9.8c0-6.1,4-10,9-10C88.2,28.3,92.3,32.2,92.3,38.3z"/>
<path class="st0" d="M129.7,42.2c-1.1,3.9-3.7,5.8-7.9,5.8c-4.9,0-8.9-2.9-9-8.2H136c0.3-1.3,0.4-2.7,0.4-4.1
	c0-9.4-6.4-14.6-15.8-14.6c-10.1,0-16.9,7.1-16.9,16.9c0,10.8,7.6,17.3,18.2,17.3c8,0,13.4-3.3,15.8-9.9L129.7,42.2z M112.8,33.7
	c0.9-3.8,4-6,7.8-6c4.1,0,6.9,2.2,6.9,5.7l-0.1,0.3L112.8,33.7L112.8,33.7z"/>
<path class="st0" d="M163.8,42.2c-1.1,3.9-3.7,5.8-7.9,5.8c-4.9,0-8.9-2.9-9-8.2H170c0.3-1.3,0.4-2.7,0.4-4.1
	c0-9.4-6.4-14.6-15.8-14.6c-10.1,0-16.9,7.1-16.9,16.9c0,10.8,7.6,17.3,18.2,17.3c8,0,13.4-3.3,15.8-9.9L163.8,42.2z M146.9,33.7
	c0.9-3.8,4-6,7.8-6c4.1,0,6.9,2.2,6.9,5.7l-0.1,0.3L146.9,33.7L146.9,33.7z"/>
<path class="st0" d="M202.8,55.2v-8.3h-19.3l18.7-18.3v-7.6h-29.7V29h18.1L172,47.3v7.9H202.8z"/>
<path class="st0" d="M229.6,42.2c-1.1,3.9-3.7,5.8-7.9,5.8c-4.9,0-8.9-2.9-9-8.2h23.1c0.3-1.3,0.4-2.7,0.4-4.1
	c0-9.4-6.4-14.6-15.8-14.6c-10.1,0-16.9,7.1-16.9,16.9c0,10.8,7.6,17.3,18.2,17.3c8,0,13.4-3.3,15.8-9.9L229.6,42.2z M212.7,33.7
	c0.9-3.8,4-6,7.8-6c4.1,0,6.9,2.2,6.9,5.7l-0.1,0.3L212.7,33.7L212.7,33.7z"/>
<path class="st0" d="M258,32.8c0,0.3,0,1,0,1h8.9c0,0,0-1.7,0-2.6c0-5.8-3.7-10.1-9.8-10.1c-4,0-6.8,1.9-8.2,5.1v-5.1h-9.2v34.1h9.2
	v-22c0-3.5,1.9-5.4,4.7-5.4C256.3,27.9,258,30.3,258,32.8z"/>
<rect x="44.3" y="30.2" class="st1" width="11.3" height="6.6"/>
<rect x="44.3" y="21.2" class="st1" width="11.3" height="6.6"/>
<rect x="44.3" y="39.4" class="st1" width="11.3" height="6.6"/>
<rect x="3.3" y="48.6" class="st1" width="11.3" height="6.6"/>
<rect x="17" y="48.6" class="st1" width="11.3" height="6.6"/>
<rect x="30.6" y="48.6" class="st1" width="11.3" height="6.6"/>
<rect x="44.3" y="48.6" class="st1" width="11.3" height="6.6"/>
<rect x="30.6" y="39.4" class="st1" width="11.3" height="6.6"/>
<rect x="17" y="39.4" class="st1" width="11.3" height="6.6"/>
<rect x="17" y="30.2" class="st1" width="11.3" height="6.6"/>
</svg>
