<?xml version="1.0" encoding="utf-8"?>
<!-- Generator: Adobe Illustrator 23.1.1, SVG Export Plug-In . SVG Version: 6.00 Build 0)  -->
<svg version="1.1" id="Layer_1" xmlns="http://www.w3.org/2000/svg" xmlns:xlink="http://www.w3.org/1999/xlink" x="0px" y="0px"
	 viewBox="0 0 300 300" style="enable-background:new 0 0 300 300;" xml:space="preserve">
<style type="text/css">
	.st0{fill:#F2F2F3;}
</style>
<g>
	<g>
		<g>
			<path class="st0" d="M54.54,108.89c-22.55,0-40.83,18.28-40.83,40.83c0,22.55,18.28,40.84,40.83,40.84
				c22.55,0,40.83-18.28,40.83-40.84C95.37,127.17,77.09,108.89,54.54,108.89z M73.26,167.79c-0.73,1.2-2.3,1.58-3.5,0.85
				c-9.59-5.86-21.66-7.18-35.87-3.94c-1.37,0.31-2.73-0.54-3.05-1.91c-0.31-1.37,0.54-2.73,1.91-3.05
				c15.55-3.56,28.9-2.03,39.66,4.55C73.62,165.02,74,166.59,73.26,167.79z M78.26,156.67c-0.92,1.5-2.88,1.97-4.38,1.05
				c-10.97-6.75-27.71-8.7-40.69-4.76c-1.68,0.51-3.46-0.44-3.97-2.12c-0.51-1.68,0.44-3.46,2.12-3.97
				c14.83-4.5,33.27-2.32,45.87,5.42C78.71,153.21,79.18,155.17,78.26,156.67z M78.69,145.09c-13.16-7.82-34.87-8.54-47.44-4.72
				c-2.02,0.61-4.15-0.53-4.76-2.54c-0.61-2.02,0.53-4.15,2.55-4.76c14.42-4.38,38.4-3.53,53.56,5.46c1.82,1.08,2.41,3.42,1.33,5.23
				C82.85,145.57,80.5,146.17,78.69,145.09z"/>
		</g>
	</g>
	<g>
		<g>
			<path class="st0" d="M124.8,146.59c-7.05-1.68-8.31-2.86-8.31-5.34c0-2.34,2.21-3.92,5.49-3.92c3.18,0,6.33,1.2,9.64,3.66
				c0.1,0.07,0.23,0.1,0.35,0.08c0.12-0.02,0.23-0.09,0.3-0.19l3.44-4.85c0.14-0.2,0.1-0.48-0.09-0.63
				c-3.93-3.16-8.36-4.69-13.54-4.69c-7.61,0-12.93,4.57-12.93,11.1c0,7.01,4.59,9.49,12.51,11.41c6.75,1.55,7.89,2.86,7.89,5.18
				c0,2.58-2.3,4.18-6.01,4.18c-4.12,0-7.47-1.39-11.23-4.64c-0.09-0.08-0.22-0.12-0.34-0.11c-0.12,0.01-0.24,0.07-0.32,0.16
				l-3.86,4.59c-0.16,0.19-0.14,0.48,0.05,0.64c4.37,3.9,9.74,5.96,15.54,5.96c8.2,0,13.5-4.48,13.5-11.42
				C136.89,151.92,133.39,148.68,124.8,146.59z"/>
			<path class="st0" d="M155.45,139.63c-3.56,0-6.47,1.4-8.88,4.27v-3.23c0-0.25-0.21-0.46-0.46-0.46h-6.31
				c-0.25,0-0.46,0.21-0.46,0.46v35.89c0,0.25,0.21,0.46,0.46,0.46h6.31c0.25,0,0.46-0.21,0.46-0.46v-11.33
				c2.41,2.7,5.32,4.02,8.88,4.02c6.61,0,13.29-5.09,13.29-14.81C168.75,144.72,162.06,139.63,155.45,139.63z M161.41,154.44
				c0,4.95-3.05,8.41-7.42,8.41c-4.32,0-7.57-3.61-7.57-8.41c0-4.79,3.26-8.41,7.57-8.41C158.29,146.04,161.41,149.57,161.41,154.44
				z"/>
			<path class="st0" d="M185.89,139.63c-8.51,0-15.17,6.55-15.17,14.92c0,8.27,6.62,14.76,15.07,14.76
				c8.54,0,15.22-6.53,15.22-14.86C201.01,146.14,194.37,139.63,185.89,139.63z M185.89,162.9c-4.53,0-7.94-3.64-7.94-8.46
				c0-4.84,3.29-8.35,7.83-8.35c4.55,0,7.99,3.64,7.99,8.46C193.78,159.39,190.46,162.9,185.89,162.9z"/>
			<path class="st0" d="M219.18,140.21h-6.95v-7.1c0-0.25-0.21-0.46-0.46-0.46h-6.31c-0.26,0-0.46,0.21-0.46,0.46v7.1h-3.04
				c-0.25,0-0.46,0.21-0.46,0.46v5.43c0,0.25,0.21,0.46,0.46,0.46H205v14.04c0,5.67,2.82,8.55,8.39,8.55c2.26,0,4.14-0.47,5.91-1.47
				c0.14-0.08,0.23-0.24,0.23-0.4v-5.17c0-0.16-0.08-0.31-0.22-0.39c-0.14-0.09-0.31-0.09-0.45-0.02c-1.22,0.61-2.39,0.89-3.71,0.89
				c-2.03,0-2.93-0.92-2.93-2.98v-13.05h6.95c0.25,0,0.46-0.21,0.46-0.46v-5.43C219.64,140.42,219.43,140.21,219.18,140.21z"/>
			<path class="st0" d="M243.38,140.24v-0.87c0-2.57,0.98-3.71,3.19-3.71c1.32,0,2.37,0.26,3.56,0.66c0.15,0.05,0.3,0.02,0.42-0.06
				c0.12-0.09,0.19-0.23,0.19-0.38v-5.32c0-0.2-0.13-0.38-0.33-0.44c-1.25-0.37-2.85-0.75-5.25-0.75c-5.83,0-8.91,3.28-8.91,9.49
				v1.34h-3.03c-0.25,0-0.46,0.21-0.46,0.46v5.45c0,0.25,0.21,0.46,0.46,0.46h3.03v21.65c0,0.25,0.21,0.46,0.46,0.46h6.31
				c0.25,0,0.46-0.21,0.46-0.46v-21.65h5.89l9.03,21.65c-1.03,2.27-2.03,2.73-3.41,2.73c-1.11,0-2.28-0.33-3.48-0.99
				c-0.11-0.06-0.25-0.07-0.37-0.03c-0.12,0.04-0.22,0.13-0.27,0.25l-2.14,4.69c-0.1,0.22-0.01,0.48,0.2,0.6
				c2.23,1.21,4.25,1.73,6.74,1.73c4.66,0,7.24-2.17,9.51-8.01l10.95-28.3c0.05-0.14,0.04-0.3-0.05-0.43
				c-0.09-0.13-0.23-0.2-0.38-0.2h-6.57c-0.2,0-0.37,0.13-0.44,0.31l-6.73,19.23l-7.37-19.24c-0.07-0.18-0.24-0.3-0.43-0.3H243.38z"
				/>
			<path class="st0" d="M229.35,140.21h-6.31c-0.25,0-0.46,0.21-0.46,0.46v27.54c0,0.25,0.21,0.46,0.46,0.46h6.31
				c0.25,0,0.46-0.21,0.46-0.46v-27.54C229.81,140.42,229.61,140.21,229.35,140.21z"/>
			<path class="st0" d="M226.23,127.67c-2.5,0-4.53,2.02-4.53,4.53c0,2.5,2.03,4.53,4.53,4.53c2.5,0,4.53-2.03,4.53-4.53
				C230.76,129.69,228.73,127.67,226.23,127.67z"/>
		</g>
		<g>
			<path class="st0" d="M281.53,149.07c-2.5,0-4.44-2.01-4.44-4.44c0-2.44,1.97-4.47,4.47-4.47c2.5,0,4.44,2.01,4.44,4.44
				C286,147.03,284.03,149.07,281.53,149.07z M281.56,140.6c-2.28,0-4,1.81-4,4.02c0,2.21,1.71,4,3.97,4c2.28,0,4-1.81,4-4.02
				C285.53,142.38,283.82,140.6,281.56,140.6z M282.54,145.05l1.26,1.76h-1.06l-1.13-1.61h-0.97v1.61h-0.89v-4.66h2.08
				c1.08,0,1.8,0.55,1.8,1.49C283.62,144.4,283.18,144.87,282.54,145.05z M281.79,142.95h-1.16v1.48h1.16
				c0.58,0,0.92-0.28,0.92-0.74C282.71,143.21,282.37,142.95,281.79,142.95z"/>
		</g>
	</g>
</g>
</svg>
