<?xml version="1.0" encoding="utf-8"?>
<!-- Generator: Adobe Illustrator 23.0.1, SVG Export Plug-In . SVG Version: 6.00 Build 0)  -->
<svg version="1.1" id="Layer_1" xmlns="http://www.w3.org/2000/svg" xmlns:xlink="http://www.w3.org/1999/xlink" x="0px" y="0px"
	 viewBox="0 0 273 50" style="enable-background:new 0 0 273 50;" xml:space="preserve">
<style type="text/css">
	.st0{fill:#F2F2F3;}
</style>
<path class="st0" d="M197.6,20.7c-1,4.9-1.7,11-2.1,13.5h-0.3c-0.3-2.6-1.1-8.6-2.1-13.4l-2.5-12.1h-7.6v32.7h4.7V14.4l0.5,2.5
	l4.8,24.4h4.7l4.7-24.4l0.5-2.5v26.9h4.7V8.7H200L197.6,20.7"/>
<path class="st0" d="M220.4,36.4c-0.4,0.9-1.4,1.5-2.3,1.5c-1.1,0-1.5-0.9-1.5-3V17.5h-5.4v17.8c0,4.4,1.4,6.4,4.6,6.4
	c2.2,0,3.9-1,5.1-3.3h0.1l0.5,2.9h4.2V17.5h-5.4V36.4"/>
<path class="st0" d="M236.2,26.9c-1.8-1.3-2.8-2.1-2.8-4c0-1.3,0.6-2.1,2.1-2.1c1.5,0,2,1.1,2.1,4.6l4.5-0.2
	c0.4-5.8-1.6-8.2-6.5-8.2c-4.6,0-6.9,2.1-6.9,6.3c0,3.9,1.9,5.6,4.9,7.9c2.6,2,4.1,3.1,4.1,4.8c0,1.3-0.8,2.1-2.1,2.1
	c-1.6,0-2.5-1.5-2.3-4.2l-4.6,0.1c-0.7,4.9,1.3,7.8,6.6,7.8c4.6,0,7-2.1,7-6.4C242.3,31.5,240.4,30,236.2,26.9"/>
<g>
	<rect x="245.3" y="17.5" class="st0" width="5.1" height="23.9"/>
</g>
<path class="st0" d="M247.9,8c-2,0-2.9,0.7-2.9,3.3c0,2.7,0.9,3.3,2.9,3.3c2,0,2.9-0.7,2.9-3.3C250.8,8.9,249.9,8,247.9,8"/>
<path class="st0" d="M267.7,32.7l-4.7-0.2c0,4.2-0.5,5.6-2.1,5.6c-1.6,0-1.9-1.5-1.9-6.5V27c0-4.8,0.3-6.3,1.9-6.3
	c1.5,0,1.9,1.4,1.9,5.9l4.7-0.3c0.3-3.7-0.2-6.2-1.6-7.7c-1-1.1-2.6-1.6-4.9-1.6c-5.2,0-7.4,2.8-7.4,10.7V31
	c0,8.1,1.8,10.7,7.2,10.7c2.3,0,3.8-0.5,4.9-1.5C267.2,38.8,267.8,36.4,267.7,32.7"/>
<path class="st0" d="M58.6,11.9c-0.6-2.3-2.5-4.2-4.8-4.8C49.5,6,32.5,6,32.5,6s-17,0-21.3,1.1c-2.3,0.6-4.2,2.5-4.8,4.8
	C5.3,16.1,5.3,25,5.3,25s0,8.9,1.1,13.1c0.6,2.3,2.5,4.2,4.8,4.8C15.5,44,32.5,44,32.5,44s17,0,21.3-1.1c2.3-0.6,4.2-2.5,4.8-4.8
	c1.1-4.3,1.1-13.1,1.1-13.1S59.7,16.1,58.6,11.9 M27.1,33.2V16.8L41.2,25L27.1,33.2z"/>
<g>
	<path class="st0" d="M84.3,40.6c-1.1-0.7-1.8-1.9-2.3-3.4c-0.4-1.5-0.7-3.6-0.7-6.1v-3.5c0-2.6,0.3-4.6,0.8-6.2s1.3-2.7,2.4-3.4
		c1.1-0.7,2.6-1.1,4.3-1.1c1.8,0,3.2,0.4,4.2,1.1c1.1,0.7,1.8,1.9,2.3,3.4c0.5,1.5,0.7,3.6,0.7,6.2v3.5c0,2.5-0.2,4.6-0.7,6.1
		c-0.5,1.5-1.3,2.7-2.3,3.4c-1.1,0.7-2.5,1.1-4.4,1.1C86.9,41.7,85.4,41.3,84.3,40.6 M90.4,36.9c0.3-0.8,0.4-2.1,0.4-3.8v-7.4
		c0-1.7-0.2-3-0.4-3.8c-0.3-0.8-0.8-1.2-1.6-1.2c-0.7,0-1.2,0.4-1.5,1.2c-0.3,0.8-0.4,2-0.4,3.8v7.4c0,1.8,0.1,3,0.4,3.8
		c0.3,0.8,0.8,1.2,1.6,1.2C89.5,38,90.1,37.7,90.4,36.9z"/>
</g>
<g>
	<path class="st0" d="M167,31.2v1.2c0,1.5,0,2.7,0.1,3.4c0.1,0.8,0.3,1.3,0.6,1.7c0.3,0.4,0.7,0.5,1.3,0.5c0.8,0,1.4-0.3,1.6-0.9
		c0.3-0.6,0.5-1.7,0.5-3.1l4.6,0.3c0,0.2,0,0.5,0,0.9c0,2.2-0.6,3.9-1.8,4.9c-1.2,1.1-2.9,1.6-5.1,1.6c-2.6,0-4.5-0.8-5.6-2.5
		c-1.1-1.7-1.6-4.2-1.6-7.7v-4.2c0-3.6,0.6-6.2,1.6-7.8c1.1-1.7,3-2.5,5.7-2.5c1.8,0,3.3,0.3,4.2,1c1,0.7,1.7,1.7,2.1,3.2
		c0.4,1.4,0.6,3.4,0.6,5.9v4.1L167,31.2 M167.7,21.1c-0.3,0.3-0.4,0.9-0.6,1.6c-0.1,0.8-0.1,1.9-0.1,3.5V28h3.9v-1.7
		c0-1.5-0.1-2.7-0.2-3.5c-0.1-0.8-0.3-1.4-0.6-1.7c-0.3-0.3-0.7-0.5-1.3-0.5C168.4,20.6,168,20.8,167.7,21.1z"/>
</g>
<path class="st0" d="M71.2,30.7L65.1,8.7h5.3l2.1,10c0.6,2.5,0.9,4.6,1.2,6.3H74c0.2-1.3,0.6-3.3,1.2-6.3l2.2-10h5.3l-6.2,22.1v10.6
	h-5.3L71.2,30.7"/>
<path class="st0" d="M113.6,17.5v23.9h-4.2l-0.5-2.9h-0.1c-1.1,2.2-2.9,3.3-5.1,3.3c-1.6,0-2.8-0.5-3.5-1.6S99,37.5,99,35.3V17.4
	h5.4V35c0,1.1,0.1,1.8,0.3,2.3c0.2,0.4,0.6,0.7,1.2,0.7c0.5,0,0.9-0.1,1.3-0.4c0.4-0.3,0.8-0.6,0.9-1.1v-19L113.6,17.5"/>
<path class="st0" d="M141.1,17.5v23.9h-4.2l-0.5-2.9h-0.1c-1.1,2.2-2.9,3.3-5.1,3.3c-1.6,0-2.8-0.5-3.5-1.6c-0.8-1-1.1-2.7-1.1-4.9
	V17.4h5.4V35c0,1.1,0.1,1.8,0.4,2.3c0.2,0.4,0.6,0.7,1.2,0.7c0.5,0,0.9-0.1,1.3-0.4s0.8-0.6,0.9-1.1v-19L141.1,17.5"/>
<polyline class="st0" points="128.2,13 122.8,13 122.8,41.3 117.6,41.3 117.6,13 112.2,13 112.2,8.6 128.2,8.6 128.2,13 "/>
<g>
	<path class="st0" d="M158.9,21.3c-0.3-1.5-0.9-2.6-1.6-3.3c-0.7-0.7-1.7-1-3-1c-1,0-1.9,0.3-2.8,0.8c-0.9,0.6-1.5,1.3-2,2.2h0V7.5
		h-5.2v33.9h4.4l0.5-2.3h0.1c0.4,0.8,1,1.4,1.9,1.9s1.8,0.7,2.8,0.7c1.8,0,3.1-0.8,4-2.5s1.3-4.3,1.3-7.8v-3.8
		C159.4,24.9,159.2,22.8,158.9,21.3 M154,31c0,1.7-0.1,3.1-0.2,4.1c-0.1,1-0.4,1.7-0.7,2.1c-0.3,0.4-0.8,0.6-1.4,0.6
		c-0.4,0-0.9-0.1-1.2-0.3c-0.4-0.2-0.7-0.5-0.9-0.9V23c0.2-0.6,0.5-1.2,0.9-1.6c0.4-0.4,0.9-0.6,1.4-0.6c0.5,0,1,0.2,1.3,0.6
		c0.3,0.4,0.5,1.1,0.6,2.2c0.1,1,0.2,2.4,0.2,4.3L154,31L154,31z"/>
</g>
</svg>
